<svg width="100mm" height="100mm" version="1.1" viewBox="0 0 100 100" xmlns="http://www.w3.org/2000/svg">
 <g fill="#0098db">
  <path d="m50.01 25a25 25 0 0 0-25 25 25 25 0 0 0 25 25 25 25 0 0 0 25-25 25 25 0 0 0-25-25zm-0.04239 0.9803a2.501 2.501 0 0 1 2.538 2.535v18.88l9.158 6.956a2.501 2.501 0 1 1-3.024 3.982l-9.674-7.345a2.501 2.501 0 0 1-1.461-2.307v-20.17a2.501 2.501 0 0 1 2.464-2.535l0.0011-0.0036z" stroke-width=".2646"/>
  <path d="m49.42 5.017c-14.53 0.05627-28.69 7.764-36.73 19.84-8.63 12.53-10.11 29.52-3.827 43.38 6.092 13.95 19.7 24.29 34.8 26.3 13.88 2.063 28.56-2.878 38.32-12.93 10.01-9.957 14.76-24.8 12.44-38.73-2.289-15.16-12.99-28.65-27.18-34.44-5.629-2.352-11.75-3.516-17.84-3.434zm0.5772 4.743c13.81-0.1414 27.34 7.468 34.43 19.36 7.5 12.14 7.781 28.28 0.6023 40.71-6.82 12.24-20.3 20.25-34.25 20.38-13.97 0.4235-27.84-7.143-35.09-19.16-7.759-12.42-7.921-28.94-0.3639-41.51 7.029-12.1 20.67-19.91 34.67-19.77z" stroke-width=".2646"/>
 </g>
</svg>
