<svg width="100mm" height="100mm" version="1.1" viewBox="0 0 100 100" xmlns="http://www.w3.org/2000/svg">
 <g fill="#e37222">
  <g stroke-width=".2645">
   <path d="m51.14 22.37c-0.282-0.0077-0.5143 0.2192-0.5135 0.5013l0.01138 3.894c6.958 1.454 14.16 3.018 20.49 4.383l5.29e-4 5.29e-4c0.8018 0.1934 1.138 0.8574 1.133 1.404-0.0024 0.2732-0.096 0.4878-0.2217 0.604-0.1257 0.1161-0.2933 0.1908-0.6598 0.109-0.0026-5.28e-4 -0.0052-0.0011-0.0078-0.0016-6.905-1.439-13.82-2.838-20.72-4.286l0.0041 3.706c6.929 1.212 14.45 2.656 20.38 3.767 0.7703 0.1641 1.094 0.8031 1.089 1.36-0.0024 0.278-0.09637 0.5063-0.2248 0.6326-0.1284 0.1261-0.2902 0.2033-0.6413 0.1349-0.0026-5.29e-4 -0.0052-0.0011-0.0078-0.0016-6.826-1.242-13.75-2.471-20.59-3.635 0.0035 1.198 0.0068 2.395 0.01035 3.592l20.35 3.563c0.7772 0.1591 1.099 0.7928 1.095 1.347-0.0024 0.2767-0.09635 0.5055-0.2269 0.6336-0.1305 0.128-0.2968 0.2068-0.6511 0.1406l-0.0083-0.0016c-6.852-1.143-13.69-2.363-20.55-3.489l0.01085 3.661c6.789 0.9211 13.91 1.994 20.2 2.918 0.7648 0.1318 1.075 0.7392 1.07 1.296-0.0024 0.2783-0.09677 0.5169-0.2321 0.6553-0.1353 0.1383-0.3042 0.2217-0.6527 0.168-0.0028-2.65e-4 -0.0055-7.94e-4 -0.0083-0.0011l-20.38-2.764-0.06098 26.36c-0.0086 0.3783 0.3643 0.7135 0.6397 0.7135h23.02c0.2761 9.7e-5 0.5003-0.2239 0.5003-0.5003v-45.37c5e-6 -0.2356-0.1645-0.4391-0.3947-0.4889-8.015-1.774-14.75-3.103-23.16-5.005-0.0324-0.0074-0.06545-0.01156-0.09868-0.0124zm17.78 30.68c1.562 0 3.071 1.197 3.328 2.695 0.257 1.498-0.8412 2.693-2.403 2.693-1.561 0-3.071-1.196-3.328-2.693-0.257-1.498 0.8412-2.695 2.403-2.695z"/>
   <path d="m49.07 22.44c-0.07579 0.0026-0.15 0.02235-0.2171 0.05788l-18.69 9.907c-0.1654 0.0878-0.2677 0.2607-0.265 0.4479l1.01e-4 17.1c4e-3 0.2719 0.2416 0.446 0.5138 0.4471 1.847 0.01572 8.656-0.2902 12.46 3.828 0.2557 0.2598 0.315 0.5622 0.3285 0.8082v18.11c0 0.273 0.2194 0.4955 0.4923 0.4992l5.606 0.07439c0.2791 0.0037 0.5069-0.2221 0.5058-0.5013l-0.2243-50.29c-0.0013-0.2814-0.235-0.5061-0.5161-0.4966z"/>
   <path d="m32.01 52.43c-2.555 0-4.87 0.3658-6.588 0.9812-0.8595 0.3076-1.572 0.6754-2.1 1.122-0.4976 0.4211-0.8444 0.946-0.883 1.539-0.0099 0.04076-0.01454 0.08259-0.01395 0.1245l0.0062 4.354c-3.1e-5 0.6373 0.3624 1.2 0.8902 1.647 0.528 0.4468 1.241 0.8145 2.1 1.122 1.719 0.6154 4.034 0.9817 6.59 0.9817 2.555 2.4e-5 4.87-0.3664 6.59-0.9817 0.8595-0.3076 1.573-0.6754 2.101-1.122 0.528-0.4468 0.8904-1.009 0.8902-1.647l0.0016-4.415c5.29e-4 -0.04-0.0039-0.07989-0.01291-0.1189-0.05622-0.5698-0.3973-1.075-0.8793-1.483-0.528-0.4468-1.241-0.8145-2.1-1.122-1.719-0.6154-4.034-0.9812-6.59-0.9812zm0 0.9997c2.459 0 4.685 0.3619 6.251 0.9227 0.7835 0.2804 1.401 0.6132 1.792 0.9439 0.391 0.3307 0.5362 0.6236 0.5362 0.8836s-0.1455 0.5526-0.5362 0.8836c-0.391 0.3307-1.008 0.6635-1.792 0.9439-1.567 0.5609-3.793 0.9227-6.251 0.9227-2.459 0-4.685-0.3619-6.251-0.9227-0.7835-0.2804-1.401-0.6132-1.792-0.9439-0.3907-0.3307-0.5368-0.6236-0.5368-0.8836s0.146-0.5526 0.5368-0.8836c0.3908-0.3309 1.008-0.6635 1.792-0.9439 1.567-0.5609 3.791-0.9227 6.251-0.9227z"/>
   <path d="m41.11 62.09c-0.2759 0.0042-0.4963 0.231-0.4923 0.5069v0.0016c-0.0011 0.01445-0.0016 0.02891-0.0016 0.04341 0 0.3322-0.2722 0.7613-0.9801 1.2-0.708 0.4389-1.796 0.8428-3.161 1.125-2.73 0.564-6.148 0.564-8.875 0-1.365-0.282-2.454-0.686-3.161-1.125-0.708-0.4389-0.9796-0.868-0.9796-1.2 0.0039-0.2817-0.2257-0.5111-0.5074-0.5069-0.1917 0.0031-0.3645 0.1155-0.4455 0.2894-0.03674 0.07265-0.05519 0.1532-0.05373 0.2346l0.0067 4.354c2.01e-4 0.6371 0.3621 1.199 0.8896 1.646 0.528 0.4468 1.241 0.815 2.101 1.123 1.719 0.6154 4.032 0.9812 6.588 0.9812 2.555 2.4e-5 4.87-0.3658 6.59-0.9812 0.8595-0.3076 1.573-0.6754 2.101-1.122 0.5278-0.4468 0.8904-1.01 0.8902-1.648l0.0016-4.415c0.0039-0.2817-0.2257-0.5111-0.5074-0.5069z"/>
   <path d="m41.11 68.71c-0.2759 0.0042-0.4963 0.231-0.4923 0.5069v0.0021c-0.0013 0.01445-0.0021 0.02891-0.0021 0.04341 0 0.3322-0.2716 0.7613-0.9796 1.2-0.708 0.4389-1.797 0.8428-3.161 1.125-2.73 0.564-6.148 0.564-8.875 0-1.365-0.282-2.454-0.686-3.161-1.125-0.708-0.4389-0.9801-0.868-0.9801-1.2 0.0039-0.2817-0.2257-0.5111-0.5074-0.5069-0.1926 0.0028-0.3664 0.116-0.4468 0.291-1.73e-4 5.29e-4 -3.44e-4 0.0011-5.3e-4 0.0016-5e-3 0.01085-0.0097 0.02188-0.01395 0.03306-0.02569 0.06275-0.03836 0.1301-0.03719 0.1979l0.0062 4.354c7e-6 0.6373 0.3624 1.2 0.8902 1.647 0.528 0.4468 1.241 0.8145 2.101 1.122 1.719 0.6154 4.032 0.9812 6.588 0.9812 2.555 2.4e-5 4.87-0.3658 6.59-0.9812 0.8595-0.3076 1.573-0.6754 2.101-1.122 0.5278-0.4468 0.8904-1.01 0.8902-1.648l0.0016-4.415c0.0042-0.282-0.2255-0.5116-0.5074-0.5074z"/>
  </g>
  <path d="m49.42 5.017c-14.53 0.05627-28.69 7.764-36.73 19.84-8.63 12.53-10.11 29.52-3.827 43.38 6.092 13.95 19.7 24.29 34.8 26.3 13.88 2.063 28.56-2.878 38.32-12.93 10.01-9.957 14.76-24.8 12.44-38.73-2.289-15.16-12.99-28.65-27.18-34.44-5.629-2.352-11.75-3.516-17.84-3.434zm0.5772 4.743c13.81-0.1414 27.34 7.468 34.43 19.36 7.5 12.14 7.781 28.28 0.6023 40.71-6.82 12.24-20.3 20.25-34.25 20.38-13.97 0.4235-27.84-7.143-35.09-19.16-7.759-12.42-7.921-28.94-0.3639-41.51 7.029-12.1 20.67-19.91 34.67-19.77z" stroke-width=".2646"/>
 </g>
</svg>
