<svg width="100mm" height="100mm" version="1.1" viewBox="0 0 378 378" xmlns="http://www.w3.org/2000/svg">
 <g fill="#f9ba2a" fill-opacity=".9294">
  <rect x="109.3" y="146.7" width="27.57" height="91.1" opacity=".929"/>
  <rect x="152.7" y="106.3" width="27.57" height="131.6" opacity=".929"/>
  <rect x="196.2" y="195.5" width="27.57" height="42.31" opacity=".929"/>
  <rect x="238.5" y="165.8" width="27.57" height="72" opacity=".929"/>
  <rect x="109.3" y="248.5" width="156.7" height="5.691" opacity=".929"/>
  <path d="m186.8 18.97c-54.92 0.2127-108.4 29.35-138.9 75-32.62 47.37-38.21 111.6-14.47 164 23.03 52.74 74.47 91.81 131.5 99.4 52.45 7.8 107.9-10.88 144.9-48.87 37.82-37.64 55.81-93.75 47.04-146.4-8.652-57.31-49.09-108.3-102.7-130.2-21.28-8.889-44.4-13.29-67.44-12.98zm2.182 17.93c52.21-0.5345 103.3 28.23 130.1 73.17 28.35 45.88 29.41 106.9 2.277 153.9-25.78 46.26-76.75 76.56-129.4 77.04-52.79 1.601-105.2-27-132.6-72.44-29.33-46.94-29.94-109.4-1.376-156.9 26.57-45.75 78.12-75.27 131-74.73z"/>
 </g>
</svg>
