<svg width="100mm" height="100mm" version="1.1" viewBox="0 0 378 378" xmlns="http://www.w3.org/2000/svg">
 <g fill="#00833f">
  <path d="m186.7 18.91c-54.9 0.2127-108.4 29.35-138.8 75-32.61 47.37-38.2 111.6-14.46 164 23.02 52.74 74.44 91.81 131.5 99.4 52.43 7.8 107.9-10.88 144.8-48.87 37.81-37.64 55.79-93.75 47.02-146.4-8.649-57.31-49.07-108.3-102.7-130.2-21.27-8.889-44.38-13.29-67.42-12.98zm2.181 17.93c52.19-0.5345 103.3 28.23 130.1 73.17 28.34 45.88 29.4 106.9 2.276 153.9-25.77 46.26-76.72 76.56-129.4 77.04-52.77 1.601-105.2-27-132.6-72.44-29.32-46.94-29.93-109.4-1.375-156.9 26.56-45.75 78.09-75.27 131-74.73z"/>
  <g stroke-width=".8183">
   <path d="m137.2 143h-30.71c-7.428 0-13.5 6.233-13.54 13.89l-0.2119 43.35c-0.01611 3.258 2.532 5.914 5.693 5.93h0.0291c3.146 0 5.705-2.622 5.721-5.871l0.2111-43.35c8e-3 -0.6266 0.5036-1.13 1.111-1.126 0.6075 5e-3 1.097 0.5127 1.097 1.14v42.58h3e-3v56.6c0 3.911 3.074 7.081 6.866 7.081 3.792 0 6.866-3.17 6.866-7.081v-56.6h2.965v56.6c0 3.911 3.074 7.081 6.866 7.081s6.866-3.17 6.866-7.081c0-26.47-0.1184-71.74-0.1241-99.19 0-0.6806 0.5342-1.233 1.194-1.235 0.6599-3e-3 1.197 0.5476 1.201 1.228l0.2111 43.35c0.0162 3.249 2.574 5.871 5.721 5.871h0.0291c3.159-0.0167 5.708-2.672 5.693-5.93l-0.2114-43.35c-0.0395-7.661-6.113-13.89-13.54-13.89z"/>
   <path d="m133.8 126.9c0-6.754-5.309-12.23-11.86-12.23-6.587 0-11.86 5.518-11.86 12.23 0 6.709 5.274 12.23 11.86 12.23 6.559 0 11.86-5.496 11.86-12.23z"/>
   <path d="m204.6 143h-30.71c-7.428 0-13.5 6.233-13.54 13.89l-0.2111 43.35c-0.0162 3.258 2.533 5.914 5.693 5.93h0.0291c3.146 0 5.705-2.622 5.721-5.871l0.2111-43.35c4e-3 -0.6282 0.4979-1.135 1.107-1.134 0.6092 2e-3 1.102 0.5111 1.102 1.139v42.59h3e-3v56.6c0 3.911 3.074 7.081 6.866 7.081 3.792 0 6.866-3.17 6.866-7.081v-56.6h2.965v56.6c0 3.911 3.074 7.081 6.866 7.081s6.866-3.17 6.866-7.081c0-93.65-0.1217-40.02-0.1241-99.19 0-0.6806 0.5342-1.233 1.194-1.235 0.6599-2e-3 1.197 0.5476 1.201 1.228l0.2111 43.35c0.0162 3.249 2.574 5.871 5.721 5.871h0.0291c3.16-0.0167 5.708-2.672 5.693-5.93l-0.2114-43.35c-0.0403-7.66-6.114-13.89-13.54-13.89z"/>
   <path d="m201.2 126.9c0-6.751-5.308-12.23-11.86-12.23-6.56 0-11.86 5.498-11.86 12.23 0 6.749 5.313 12.23 11.86 12.23 6.554 0 11.86-5.489 11.86-12.23z"/>
   <path d="m271.4 143h-30.71c-7.428 0-13.5 6.233-13.54 13.89l-0.2111 43.35c-0.0162 3.258 2.532 5.914 5.693 5.93h0.0291c3.146 0 5.705-2.622 5.721-5.871l0.2111-43.35c4e-3 -0.6282 0.4988-1.135 1.108-1.134 0.6091 2e-3 1.101 0.5111 1.101 1.139v42.59h3e-3v56.6c0 3.911 3.074 7.081 6.866 7.081 3.792 0 6.866-3.17 6.866-7.081v-56.6h2.965v56.6c0 3.911 3.074 7.081 6.866 7.081s6.866-3.17 6.866-7.081c0-93.65-0.1217-40.02-0.1241-99.19 0-0.6806 0.5342-1.233 1.194-1.235 0.6599-2e-3 1.197 0.5476 1.201 1.228l0.2111 43.35c0.0162 3.249 2.574 5.871 5.721 5.871h0.0291c3.159-0.0167 5.708-2.672 5.693-5.93l-0.2111-43.35c-0.0412-7.659-6.114-13.89-13.54-13.89z"/>
   <path d="m268 126.9c0-6.754-5.309-12.23-11.86-12.23-6.587 0-11.86 5.525-11.86 12.23 0 6.71 5.275 12.23 11.86 12.23 6.572 0 11.86-5.511 11.86-12.23z"/>
  </g>
 </g>
</svg>
